<!DOCTYPE svg PUBLIC "-//W3C//DTD SVG 1.1//EN" "http://www.w3.org/Graphics/SVG/1.1/DTD/svg11.dtd">
<svg xmlns="http://www.w3.org/2000/svg" version="1.1" width="76.25mm" height="76.25mm" viewBox="25.375 25.375 76.25 76.25">
            <title>Picture generated by PcbDraw </title>
            <desc>Picture generated by PcbDraw</desc>
        <defs><clipPath id="cut-off"><path d=" M 101.6 100.6 L 101.6 26.4 A 1 1 0 0 0 100.6 25.4 L 26.4 25.4 A 1 1 0 0 0 25.4 26.4 L 25.4 100.6 A 1 1 0 0 0 26.4 101.6 L 100.6 101.6 A 1 1 0 0 0 101.6 100.6  M 46.975 47.475 A 0.5 0.5 0 0 1 47.475 46.975 L 60.475 46.975 A 0.5 0.5 0 0 1 60.975 47.475 L 60.975 60.475 A 0.5 0.5 0 0 1 60.475 60.975 L 47.475 60.975 A 0.5 0.5 0 0 1 46.975 60.475 L 46.975 47.475  M 27.925 28.425 A 0.5 0.5 0 0 1 28.425 27.925 L 41.425 27.925 A 0.5 0.5 0 0 1 41.925 28.425 L 41.925 41.425 A 0.5 0.5 0 0 1 41.425 41.925 L 28.425 41.925 A 0.5 0.5 0 0 1 27.925 41.425 L 27.925 28.425  M 85.075 47.475 A 0.5 0.5 0 0 1 85.575 46.975 L 98.575 46.975 A 0.5 0.5 0 0 1 99.075 47.475 L 99.075 60.475 A 0.5 0.5 0 0 1 98.575 60.975 L 85.575 60.975 A 0.5 0.5 0 0 1 85.075 60.475 L 85.075 47.475  M 85.075 28.425 A 0.5 0.5 0 0 1 85.575 27.925 L 98.575 27.925 A 0.5 0.5 0 0 1 99.075 28.425 L 99.075 41.425 A 0.5 0.5 0 0 1 98.575 41.925 L 85.575 41.925 A 0.5 0.5 0 0 1 85.075 41.425 L 85.075 28.425  M 66.025 47.475 A 0.5 0.5 0 0 1 66.525 46.975 L 79.525 46.975 A 0.5 0.5 0 0 1 80.025 47.475 L 80.025 60.475 A 0.5 0.5 0 0 1 79.525 60.975 L 66.525 60.975 A 0.5 0.5 0 0 1 66.025 60.475 L 66.025 47.475  M 46.975 66.525 A 0.5 0.5 0 0 1 47.475 66.025 L 60.475 66.025 A 0.5 0.5 0 0 1 60.975 66.525 L 60.975 79.525 A 0.5 0.5 0 0 1 60.475 80.025 L 47.475 80.025 A 0.5 0.5 0 0 1 46.975 79.525 L 46.975 66.525  M 66.065 85.49 A 0.4 0.4 0 0 1 66.465 85.09 L 66.912 85.09 A 0.2 0.2 0 0 0 67.112 84.89 L 67.112 83.475 A 0.4 0.4 0 0 1 67.512 83.075 L 73.712 83.075 A 0.4 0.4 0 0 1 74.112 83.475 L 74.112 84.89 A 0.2 0.2 0 0 0 74.312 85.09 L 90.788 85.09 A 0.2 0.2 0 0 0 90.988 84.89 L 90.988 83.475 A 0.4 0.4 0 0 1 91.388 83.075 L 97.588 83.075 A 0.4 0.4 0 0 1 97.988 83.475 L 97.988 84.89 A 0.2 0.2 0 0 0 98.188 85.09 L 98.635 85.09 A 0.4 0.4 0 0 1 99.035 85.49 L 99.035 98.66 A 0.4 0.4 0 0 1 98.635 99.06 L 66.465 99.06 A 0.4 0.4 0 0 1 66.065 98.66 L 66.065 85.49  M 46.975 28.425 A 0.5 0.5 0 0 1 47.475 27.925 L 60.475 27.925 A 0.5 0.5 0 0 1 60.975 28.425 L 60.975 41.425 A 0.5 0.5 0 0 1 60.475 41.925 L 47.475 41.925 A 0.5 0.5 0 0 1 46.975 41.425 L 46.975 28.425  M 85.075 66.525 A 0.5 0.5 0 0 1 85.575 66.025 L 98.575 66.025 A 0.5 0.5 0 0 1 99.075 66.525 L 99.075 79.525 A 0.5 0.5 0 0 1 98.575 80.025 L 85.575 80.025 A 0.5 0.5 0 0 1 85.075 79.525 L 85.075 66.525  M 27.925 47.475 A 0.5 0.5 0 0 1 28.425 46.975 L 41.425 46.975 A 0.5 0.5 0 0 1 41.925 47.475 L 41.925 60.475 A 0.5 0.5 0 0 1 41.425 60.975 L 28.425 60.975 A 0.5 0.5 0 0 1 27.925 60.475 L 27.925 47.475  M 27.925 66.525 A 0.5 0.5 0 0 1 28.425 66.025 L 41.425 66.025 A 0.5 0.5 0 0 1 41.925 66.525 L 41.925 79.525 A 0.5 0.5 0 0 1 41.425 80.025 L 28.425 80.025 A 0.5 0.5 0 0 1 27.925 79.525 L 27.925 66.525  M 66.025 66.525 A 0.5 0.5 0 0 1 66.525 66.025 L 79.525 66.025 A 0.5 0.5 0 0 1 80.025 66.525 L 80.025 79.525 A 0.5 0.5 0 0 1 79.525 80.025 L 66.525 80.025 A 0.5 0.5 0 0 1 66.025 79.525 L 66.025 66.525  M 27.965 85.49 A 0.4 0.4 0 0 1 28.365 85.09 L 28.812 85.09 A 0.2 0.2 0 0 0 29.012 84.89 L 29.012 83.475 A 0.4 0.4 0 0 1 29.412 83.075 L 35.612 83.075 A 0.4 0.4 0 0 1 36.012 83.475 L 36.012 84.89 A 0.2 0.2 0 0 0 36.212 85.09 L 52.688 85.09 A 0.2 0.2 0 0 0 52.888 84.89 L 52.888 83.475 A 0.4 0.4 0 0 1 53.288 83.075 L 59.488 83.075 A 0.4 0.4 0 0 1 59.888 83.475 L 59.888 84.89 A 0.2 0.2 0 0 0 60.088 85.09 L 60.535 85.09 A 0.4 0.4 0 0 1 60.935 85.49 L 60.935 98.66 A 0.4 0.4 0 0 1 60.535 99.06 L 28.365 99.06 A 0.4 0.4 0 0 1 27.965 98.66 L 27.965 85.49  M 66.025 28.425 A 0.5 0.5 0 0 1 66.525 27.925 L 79.525 27.925 A 0.5 0.5 0 0 1 80.025 28.425 L 80.025 41.425 A 0.5 0.5 0 0 1 79.525 41.925 L 66.525 41.925 A 0.5 0.5 0 0 1 66.025 41.425 L 66.025 28.425 " style="fill-rule: evenodd;"/></clipPath><mask id="pads-mask"><g style="fill:#ffffff; fill-opacity:1.0000; stroke:none;">
<circle cx="39.6875" cy="44.4500" r="2.0000"/> 
</g>
<g style="fill:#ffffff; fill-opacity:1.0000; stroke:none;">
<circle cx="39.6875" cy="82.5500" r="2.0000"/> 
</g>
<g style="fill:#ffffff; fill-opacity:1.0000; stroke:none;">
<circle cx="87.6300" cy="82.5500" r="2.0000"/> 
</g>
<g style="fill:#ffffff; fill-opacity:1.0000; stroke:none;">
<circle cx="87.3125" cy="44.4500" r="2.0000"/> 
</g>
<g style="fill:#ffffff; fill-opacity:1.0000; stroke:none;">
<circle cx="63.5000" cy="82.5500" r="2.0000"/> 
</g> 
</mask><mask id="pads-mask-silkscreen"><rect x="25.375" y="25.375" width="76.25" height="76.25" fill="white"/><g style="fill:#000000; fill-opacity:1.0000; stroke:none;">
<circle cx="39.6875" cy="44.4500" r="2.0000"/> 
</g>
<g style="fill:#000000; fill-opacity:1.0000; stroke:none;">
<circle cx="39.6875" cy="82.5500" r="2.0000"/> 
</g>
<g style="fill:#000000; fill-opacity:1.0000; stroke:none;">
<circle cx="87.6300" cy="82.5500" r="2.0000"/> 
</g>
<g style="fill:#000000; fill-opacity:1.0000; stroke:none;">
<circle cx="87.3125" cy="44.4500" r="2.0000"/> 
</g>
<g style="fill:#000000; fill-opacity:1.0000; stroke:none;">
<circle cx="63.5000" cy="82.5500" r="2.0000"/> 
</g> 
</mask><mask id="hole-mask"><g><rect x="25.375" y="25.375" fill="white" width="76.25" height="76.25"/><polyline stroke-linecap="round" stroke="black" stroke-width="4.0" points="-0.0 0 0.0 0" transform="translate(39.6875 44.45) rotate(-0.0)"/><polyline stroke-linecap="round" stroke="black" stroke-width="4.0" points="-0.0 0 0.0 0" transform="translate(39.6875 82.55) rotate(-0.0)"/><polyline stroke-linecap="round" stroke="black" stroke-width="4.0" points="-0.0 0 0.0 0" transform="translate(87.63 82.55) rotate(-0.0)"/><polyline stroke-linecap="round" stroke="black" stroke-width="4.0" points="-0.0 0 0.0 0" transform="translate(87.3125 44.45) rotate(-0.0)"/><polyline stroke-linecap="round" stroke="black" stroke-width="4.0" points="-0.0 0 0.0 0" transform="translate(63.5 82.55) rotate(-0.0)"/></g></mask></defs><g transform="" id="boardContainer"><g id="substrate" clip-path="url(#cut-off)" mask="url(#hole-mask)"><g id="substrate-board" style="fill:#285e3a; stroke:#285e3a;"><path d=" M 101.6 100.6 L 101.6 26.4 A 1 1 0 0 0 100.6 25.4 L 26.4 25.4 A 1 1 0 0 0 25.4 26.4 L 25.4 100.6 A 1 1 0 0 0 26.4 101.6 L 100.6 101.6 A 1 1 0 0 0 101.6 100.6  M 46.975 47.475 A 0.5 0.5 0 0 1 47.475 46.975 L 60.475 46.975 A 0.5 0.5 0 0 1 60.975 47.475 L 60.975 60.475 A 0.5 0.5 0 0 1 60.475 60.975 L 47.475 60.975 A 0.5 0.5 0 0 1 46.975 60.475 L 46.975 47.475  M 27.925 28.425 A 0.5 0.5 0 0 1 28.425 27.925 L 41.425 27.925 A 0.5 0.5 0 0 1 41.925 28.425 L 41.925 41.425 A 0.5 0.5 0 0 1 41.425 41.925 L 28.425 41.925 A 0.5 0.5 0 0 1 27.925 41.425 L 27.925 28.425  M 85.075 47.475 A 0.5 0.5 0 0 1 85.575 46.975 L 98.575 46.975 A 0.5 0.5 0 0 1 99.075 47.475 L 99.075 60.475 A 0.5 0.5 0 0 1 98.575 60.975 L 85.575 60.975 A 0.5 0.5 0 0 1 85.075 60.475 L 85.075 47.475  M 85.075 28.425 A 0.5 0.5 0 0 1 85.575 27.925 L 98.575 27.925 A 0.5 0.5 0 0 1 99.075 28.425 L 99.075 41.425 A 0.5 0.5 0 0 1 98.575 41.925 L 85.575 41.925 A 0.5 0.5 0 0 1 85.075 41.425 L 85.075 28.425  M 66.025 47.475 A 0.5 0.5 0 0 1 66.525 46.975 L 79.525 46.975 A 0.5 0.5 0 0 1 80.025 47.475 L 80.025 60.475 A 0.5 0.5 0 0 1 79.525 60.975 L 66.525 60.975 A 0.5 0.5 0 0 1 66.025 60.475 L 66.025 47.475  M 46.975 66.525 A 0.5 0.5 0 0 1 47.475 66.025 L 60.475 66.025 A 0.5 0.5 0 0 1 60.975 66.525 L 60.975 79.525 A 0.5 0.5 0 0 1 60.475 80.025 L 47.475 80.025 A 0.5 0.5 0 0 1 46.975 79.525 L 46.975 66.525  M 66.065 85.49 A 0.4 0.4 0 0 1 66.465 85.09 L 66.912 85.09 A 0.2 0.2 0 0 0 67.112 84.89 L 67.112 83.475 A 0.4 0.4 0 0 1 67.512 83.075 L 73.712 83.075 A 0.4 0.4 0 0 1 74.112 83.475 L 74.112 84.89 A 0.2 0.2 0 0 0 74.312 85.09 L 90.788 85.09 A 0.2 0.2 0 0 0 90.988 84.89 L 90.988 83.475 A 0.4 0.4 0 0 1 91.388 83.075 L 97.588 83.075 A 0.4 0.4 0 0 1 97.988 83.475 L 97.988 84.89 A 0.2 0.2 0 0 0 98.188 85.09 L 98.635 85.09 A 0.4 0.4 0 0 1 99.035 85.49 L 99.035 98.66 A 0.4 0.4 0 0 1 98.635 99.06 L 66.465 99.06 A 0.4 0.4 0 0 1 66.065 98.66 L 66.065 85.49  M 46.975 28.425 A 0.5 0.5 0 0 1 47.475 27.925 L 60.475 27.925 A 0.5 0.5 0 0 1 60.975 28.425 L 60.975 41.425 A 0.5 0.5 0 0 1 60.475 41.925 L 47.475 41.925 A 0.5 0.5 0 0 1 46.975 41.425 L 46.975 28.425  M 85.075 66.525 A 0.5 0.5 0 0 1 85.575 66.025 L 98.575 66.025 A 0.5 0.5 0 0 1 99.075 66.525 L 99.075 79.525 A 0.5 0.5 0 0 1 98.575 80.025 L 85.575 80.025 A 0.5 0.5 0 0 1 85.075 79.525 L 85.075 66.525  M 27.925 47.475 A 0.5 0.5 0 0 1 28.425 46.975 L 41.425 46.975 A 0.5 0.5 0 0 1 41.925 47.475 L 41.925 60.475 A 0.5 0.5 0 0 1 41.425 60.975 L 28.425 60.975 A 0.5 0.5 0 0 1 27.925 60.475 L 27.925 47.475  M 27.925 66.525 A 0.5 0.5 0 0 1 28.425 66.025 L 41.425 66.025 A 0.5 0.5 0 0 1 41.925 66.525 L 41.925 79.525 A 0.5 0.5 0 0 1 41.425 80.025 L 28.425 80.025 A 0.5 0.5 0 0 1 27.925 79.525 L 27.925 66.525  M 66.025 66.525 A 0.5 0.5 0 0 1 66.525 66.025 L 79.525 66.025 A 0.5 0.5 0 0 1 80.025 66.525 L 80.025 79.525 A 0.5 0.5 0 0 1 79.525 80.025 L 66.525 80.025 A 0.5 0.5 0 0 1 66.025 79.525 L 66.025 66.525  M 27.965 85.49 A 0.4 0.4 0 0 1 28.365 85.09 L 28.812 85.09 A 0.2 0.2 0 0 0 29.012 84.89 L 29.012 83.475 A 0.4 0.4 0 0 1 29.412 83.075 L 35.612 83.075 A 0.4 0.4 0 0 1 36.012 83.475 L 36.012 84.89 A 0.2 0.2 0 0 0 36.212 85.09 L 52.688 85.09 A 0.2 0.2 0 0 0 52.888 84.89 L 52.888 83.475 A 0.4 0.4 0 0 1 53.288 83.075 L 59.488 83.075 A 0.4 0.4 0 0 1 59.888 83.475 L 59.888 84.89 A 0.2 0.2 0 0 0 60.088 85.09 L 60.535 85.09 A 0.4 0.4 0 0 1 60.935 85.49 L 60.935 98.66 A 0.4 0.4 0 0 1 60.535 99.06 L 28.365 99.06 A 0.4 0.4 0 0 1 27.965 98.66 L 27.965 85.49  M 66.025 28.425 A 0.5 0.5 0 0 1 66.525 27.925 L 79.525 27.925 A 0.5 0.5 0 0 1 80.025 28.425 L 80.025 41.425 A 0.5 0.5 0 0 1 79.525 41.925 L 66.525 41.925 A 0.5 0.5 0 0 1 66.025 41.425 L 66.025 28.425 " style="fill-rule: evenodd;"/><g style="fill: none;stroke: #285e3a;stroke-width: 0.0500;stroke-opacity: 1;stroke-linecap: round;stroke-linejoin: round">
<path d="M100.6000 101.6000 A1.0000 1.0000 0.0 0 0 101.6000 100.6000"/>
<path d="M25.4000 100.6000 L25.4000 26.4000 "/>
<path d="M101.6000 100.6000 L101.6000 26.4000 "/>
<path d="M26.4000 25.4000 L100.6000 25.4000 "/>
<path d="M25.4000 100.6000 A1.0000 1.0000 0.0 0 0 26.4000 101.6000"/>
<path d="M26.4000 25.4000 A1.0000 1.0000 0.0 0 0 25.4000 26.4000"/>
<path d="M100.6000 101.6000 L26.4000 101.6000 "/>
<path d="M101.6000 26.4000 A1.0000 1.0000 0.0 0 0 100.6000 25.4000"/>
<path d="M46.9750 60.4750 L46.9750 47.4750 "/>
<path d="M47.4750 46.9750 L60.4750 46.9750 "/>
<path d="M60.4750 60.9750 L47.4750 60.9750 "/>
<path d="M60.9750 47.4750 L60.9750 60.4750 "/>
<path d="M47.4750 46.9750 A0.5000 0.5000 0.0 0 0 46.9750 47.4750"/>
<path d="M46.9750 60.4750 A0.5000 0.5000 0.0 0 0 47.4750 60.9750"/>
<path d="M60.9750 47.4750 A0.5000 0.5000 0.0 0 0 60.4750 46.9750"/>
<path d="M60.4750 60.9750 A0.5000 0.5000 0.0 0 0 60.9750 60.4750"/>
<path d="M27.9250 41.4250 L27.9250 28.4250 "/>
<path d="M28.4250 27.9250 L41.4250 27.9250 "/>
<path d="M41.4250 41.9250 L28.4250 41.9250 "/>
<path d="M41.9250 28.4250 L41.9250 41.4250 "/>
<path d="M28.4250 27.9250 A0.5000 0.5000 0.0 0 0 27.9250 28.4250"/>
<path d="M27.9250 41.4250 A0.5000 0.5000 0.0 0 0 28.4250 41.9250"/>
<path d="M41.9250 28.4250 A0.5000 0.5000 0.0 0 0 41.4250 27.9250"/>
<path d="M41.4250 41.9250 A0.5000 0.5000 0.0 0 0 41.9250 41.4250"/>
<path d="M85.0750 60.4750 L85.0750 47.4750 "/>
<path d="M85.5750 46.9750 L98.5750 46.9750 "/>
<path d="M98.5750 60.9750 L85.5750 60.9750 "/>
<path d="M99.0750 47.4750 L99.0750 60.4750 "/>
<path d="M85.5750 46.9750 A0.5000 0.5000 0.0 0 0 85.0750 47.4750"/>
<path d="M85.0750 60.4750 A0.5000 0.5000 0.0 0 0 85.5750 60.9750"/>
<path d="M99.0750 47.4750 A0.5000 0.5000 0.0 0 0 98.5750 46.9750"/>
<path d="M98.5750 60.9750 A0.5000 0.5000 0.0 0 0 99.0750 60.4750"/>
<path d="M85.0750 41.4250 L85.0750 28.4250 "/>
<path d="M85.5750 27.9250 L98.5750 27.9250 "/>
<path d="M98.5750 41.9250 L85.5750 41.9250 "/>
<path d="M99.0750 28.4250 L99.0750 41.4250 "/>
<path d="M85.5750 27.9250 A0.5000 0.5000 0.0 0 0 85.0750 28.4250"/>
<path d="M85.0750 41.4250 A0.5000 0.5000 0.0 0 0 85.5750 41.9250"/>
<path d="M99.0750 28.4250 A0.5000 0.5000 0.0 0 0 98.5750 27.9250"/>
<path d="M98.5750 41.9250 A0.5000 0.5000 0.0 0 0 99.0750 41.4250"/>
<path d="M66.0250 60.4750 L66.0250 47.4750 "/>
<path d="M66.5250 46.9750 L79.5250 46.9750 "/>
<path d="M79.5250 60.9750 L66.5250 60.9750 "/>
<path d="M80.0250 47.4750 L80.0250 60.4750 "/>
<path d="M66.5250 46.9750 A0.5000 0.5000 0.0 0 0 66.0250 47.4750"/>
<path d="M66.0250 60.4750 A0.5000 0.5000 0.0 0 0 66.5250 60.9750"/>
<path d="M80.0250 47.4750 A0.5000 0.5000 0.0 0 0 79.5250 46.9750"/>
<path d="M79.5250 60.9750 A0.5000 0.5000 0.0 0 0 80.0250 60.4750"/>
<path d="M46.9750 79.5250 L46.9750 66.5250 "/>
<path d="M47.4750 66.0250 L60.4750 66.0250 "/>
<path d="M60.4750 80.0250 L47.4750 80.0250 "/>
<path d="M60.9750 66.5250 L60.9750 79.5250 "/>
<path d="M47.4750 66.0250 A0.5000 0.5000 0.0 0 0 46.9750 66.5250"/>
<path d="M46.9750 79.5250 A0.5000 0.5000 0.0 0 0 47.4750 80.0250"/>
<path d="M60.9750 66.5250 A0.5000 0.5000 0.0 0 0 60.4750 66.0250"/>
<path d="M60.4750 80.0250 A0.5000 0.5000 0.0 0 0 60.9750 79.5250"/>
<path d="M66.0650 98.6600 L66.0650 85.4900 "/>
<path d="M66.9120 85.0900 L66.4650 85.0900 "/>
<path d="M67.1120 84.8900 L67.1120 83.4750 "/>
<path d="M67.5120 83.0750 L73.7120 83.0750 "/>
<path d="M74.1120 84.8900 L74.1120 83.4750 "/>
<path d="M74.3120 85.0900 L90.7880 85.0900 "/>
<path d="M90.9880 84.8900 L90.9880 83.4750 "/>
<path d="M97.5880 83.0750 L91.3880 83.0750 "/>
<path d="M97.9880 84.8900 L97.9880 83.4750 "/>
<path d="M98.1880 85.0900 L98.6350 85.0900 "/>
<path d="M98.6350 99.0600 L66.4650 99.0600 "/>
<path d="M99.0350 85.4900 L99.0350 98.6600 "/>
<path d="M66.4650 85.0900 A0.4000 0.4000 0.0 0 0 66.0650 85.4900"/>
<path d="M66.0650 98.6600 A0.4000 0.4000 0.0 0 0 66.4650 99.0600"/>
<path d="M67.5120 83.0750 A0.4000 0.4000 0.0 0 0 67.1120 83.4750"/>
<path d="M66.9120 85.0900 A0.2000 0.2000 0.0 0 0 67.1120 84.8900"/>
<path d="M74.1120 83.4750 A0.4000 0.4000 0.0 0 0 73.7120 83.0750"/>
<path d="M74.1120 84.8900 A0.2000 0.2000 0.0 0 0 74.3120 85.0900"/>
<path d="M91.3880 83.0750 A0.4000 0.4000 0.0 0 0 90.9880 83.4750"/>
<path d="M90.7880 85.0900 A0.2000 0.2000 0.0 0 0 90.9880 84.8900"/>
<path d="M97.9880 83.4750 A0.4000 0.4000 0.0 0 0 97.5880 83.0750"/>
<path d="M97.9880 84.8900 A0.2000 0.2000 0.0 0 0 98.1880 85.0900"/>
<path d="M99.0350 85.4900 A0.4000 0.4000 0.0 0 0 98.6350 85.0900"/>
<path d="M98.6350 99.0600 A0.4000 0.4000 0.0 0 0 99.0350 98.6600"/>
<path d="M46.9750 41.4250 L46.9750 28.4250 "/>
<path d="M47.4750 27.9250 L60.4750 27.9250 "/>
<path d="M60.4750 41.9250 L47.4750 41.9250 "/>
<path d="M60.9750 28.4250 L60.9750 41.4250 "/>
<path d="M47.4750 27.9250 A0.5000 0.5000 0.0 0 0 46.9750 28.4250"/>
<path d="M46.9750 41.4250 A0.5000 0.5000 0.0 0 0 47.4750 41.9250"/>
<path d="M60.9750 28.4250 A0.5000 0.5000 0.0 0 0 60.4750 27.9250"/>
<path d="M60.4750 41.9250 A0.5000 0.5000 0.0 0 0 60.9750 41.4250"/>
<path d="M85.0750 79.5250 L85.0750 66.5250 "/>
<path d="M85.5750 66.0250 L98.5750 66.0250 "/>
<path d="M98.5750 80.0250 L85.5750 80.0250 "/>
<path d="M99.0750 66.5250 L99.0750 79.5250 "/>
<path d="M85.5750 66.0250 A0.5000 0.5000 0.0 0 0 85.0750 66.5250"/>
<path d="M85.0750 79.5250 A0.5000 0.5000 0.0 0 0 85.5750 80.0250"/>
<path d="M99.0750 66.5250 A0.5000 0.5000 0.0 0 0 98.5750 66.0250"/>
<path d="M98.5750 80.0250 A0.5000 0.5000 0.0 0 0 99.0750 79.5250"/>
<path d="M27.9250 60.4750 L27.9250 47.4750 "/>
<path d="M28.4250 46.9750 L41.4250 46.9750 "/>
<path d="M41.4250 60.9750 L28.4250 60.9750 "/>
<path d="M41.9250 47.4750 L41.9250 60.4750 "/>
<path d="M28.4250 46.9750 A0.5000 0.5000 0.0 0 0 27.9250 47.4750"/>
<path d="M27.9250 60.4750 A0.5000 0.5000 0.0 0 0 28.4250 60.9750"/>
<path d="M41.9250 47.4750 A0.5000 0.5000 0.0 0 0 41.4250 46.9750"/>
<path d="M41.4250 60.9750 A0.5000 0.5000 0.0 0 0 41.9250 60.4750"/>
<path d="M27.9250 79.5250 L27.9250 66.5250 "/>
<path d="M28.4250 66.0250 L41.4250 66.0250 "/>
<path d="M41.4250 80.0250 L28.4250 80.0250 "/>
<path d="M41.9250 66.5250 L41.9250 79.5250 "/>
<path d="M28.4250 66.0250 A0.5000 0.5000 0.0 0 0 27.9250 66.5250"/>
<path d="M27.9250 79.5250 A0.5000 0.5000 0.0 0 0 28.4250 80.0250"/>
<path d="M41.9250 66.5250 A0.5000 0.5000 0.0 0 0 41.4250 66.0250"/>
<path d="M41.4250 80.0250 A0.5000 0.5000 0.0 0 0 41.9250 79.5250"/>
<path d="M66.0250 79.5250 L66.0250 66.5250 "/>
<path d="M66.5250 66.0250 L79.5250 66.0250 "/>
<path d="M79.5250 80.0250 L66.5250 80.0250 "/>
<path d="M80.0250 66.5250 L80.0250 79.5250 "/>
<path d="M66.5250 66.0250 A0.5000 0.5000 0.0 0 0 66.0250 66.5250"/>
<path d="M66.0250 79.5250 A0.5000 0.5000 0.0 0 0 66.5250 80.0250"/>
<path d="M80.0250 66.5250 A0.5000 0.5000 0.0 0 0 79.5250 66.0250"/>
<path d="M79.5250 80.0250 A0.5000 0.5000 0.0 0 0 80.0250 79.5250"/>
<path d="M27.9650 98.6600 L27.9650 85.4900 "/>
<path d="M28.8120 85.0900 L28.3650 85.0900 "/>
<path d="M29.0120 84.8900 L29.0120 83.4750 "/>
<path d="M29.4120 83.0750 L35.6120 83.0750 "/>
<path d="M36.0120 84.8900 L36.0120 83.4750 "/>
<path d="M36.2120 85.0900 L52.6880 85.0900 "/>
<path d="M52.8880 84.8900 L52.8880 83.4750 "/>
<path d="M59.4880 83.0750 L53.2880 83.0750 "/>
<path d="M59.8880 84.8900 L59.8880 83.4750 "/>
<path d="M60.0880 85.0900 L60.5350 85.0900 "/>
<path d="M60.5350 99.0600 L28.3650 99.0600 "/>
<path d="M60.9350 85.4900 L60.9350 98.6600 "/>
<path d="M28.3650 85.0900 A0.4000 0.4000 0.0 0 0 27.9650 85.4900"/>
<path d="M27.9650 98.6600 A0.4000 0.4000 0.0 0 0 28.3650 99.0600"/>
<path d="M29.4120 83.0750 A0.4000 0.4000 0.0 0 0 29.0120 83.4750"/>
<path d="M28.8120 85.0900 A0.2000 0.2000 0.0 0 0 29.0120 84.8900"/>
<path d="M36.0120 83.4750 A0.4000 0.4000 0.0 0 0 35.6120 83.0750"/>
<path d="M36.0120 84.8900 A0.2000 0.2000 0.0 0 0 36.2120 85.0900"/>
<path d="M53.2880 83.0750 A0.4000 0.4000 0.0 0 0 52.8880 83.4750"/>
<path d="M52.6880 85.0900 A0.2000 0.2000 0.0 0 0 52.8880 84.8900"/>
<path d="M59.8880 83.4750 A0.4000 0.4000 0.0 0 0 59.4880 83.0750"/>
<path d="M59.8880 84.8900 A0.2000 0.2000 0.0 0 0 60.0880 85.0900"/>
<path d="M60.9350 85.4900 A0.4000 0.4000 0.0 0 0 60.5350 85.0900"/>
<path d="M60.5350 99.0600 A0.4000 0.4000 0.0 0 0 60.9350 98.6600"/>
<path d="M66.0250 41.4250 L66.0250 28.4250 "/>
<path d="M66.5250 27.9250 L79.5250 27.9250 "/>
<path d="M79.5250 41.9250 L66.5250 41.9250 "/>
<path d="M80.0250 28.4250 L80.0250 41.4250 "/>
<path d="M66.5250 27.9250 A0.5000 0.5000 0.0 0 0 66.0250 28.4250"/>
<path d="M66.0250 41.4250 A0.5000 0.5000 0.0 0 0 66.5250 41.9250"/>
<path d="M80.0250 28.4250 A0.5000 0.5000 0.0 0 0 79.5250 27.9250"/>
<path d="M79.5250 41.9250 A0.5000 0.5000 0.0 0 0 80.0250 41.4250"/>
</g> 
</g><g id="substrate-clad" style="fill:#9c6b28; stroke:#9c6b28;"><g style="fill: #9c6b28;fill-opacity: 1.0000;stroke: none">
<circle cx="39.6875" cy="44.4500" r="2.0000"/> 
</g>
<g style="fill: #9c6b28;fill-opacity: 1.0000;stroke: none">
<circle cx="39.6875" cy="82.5500" r="2.0000"/> 
</g>
<g style="fill: #9c6b28;fill-opacity: 1.0000;stroke: none">
<circle cx="87.6300" cy="82.5500" r="2.0000"/> 
</g>
<g style="fill: #9c6b28;fill-opacity: 1.0000;stroke: none">
<circle cx="87.3125" cy="44.4500" r="2.0000"/> 
</g>
<g style="fill: #9c6b28;fill-opacity: 1.0000;stroke: none">
<circle cx="63.5000" cy="82.5500" r="2.0000"/> 
</g> 
</g><g id="substrate-outline" style="fill:#000000; stroke:#000000; stroke-width: 0.15"><g style="fill: none;stroke: #000000;stroke-width: #000000;stroke-opacity: 1;stroke-linecap: round;stroke-linejoin: round">
<path d="M100.6000 101.6000 A1.0000 1.0000 0.0 0 0 101.6000 100.6000"/>
<path d="M25.4000 100.6000 L25.4000 26.4000 "/>
<path d="M101.6000 100.6000 L101.6000 26.4000 "/>
<path d="M26.4000 25.4000 L100.6000 25.4000 "/>
<path d="M25.4000 100.6000 A1.0000 1.0000 0.0 0 0 26.4000 101.6000"/>
<path d="M26.4000 25.4000 A1.0000 1.0000 0.0 0 0 25.4000 26.4000"/>
<path d="M100.6000 101.6000 L26.4000 101.6000 "/>
<path d="M101.6000 26.4000 A1.0000 1.0000 0.0 0 0 100.6000 25.4000"/>
<path d="M46.9750 60.4750 L46.9750 47.4750 "/>
<path d="M47.4750 46.9750 L60.4750 46.9750 "/>
<path d="M60.4750 60.9750 L47.4750 60.9750 "/>
<path d="M60.9750 47.4750 L60.9750 60.4750 "/>
<path d="M47.4750 46.9750 A0.5000 0.5000 0.0 0 0 46.9750 47.4750"/>
<path d="M46.9750 60.4750 A0.5000 0.5000 0.0 0 0 47.4750 60.9750"/>
<path d="M60.9750 47.4750 A0.5000 0.5000 0.0 0 0 60.4750 46.9750"/>
<path d="M60.4750 60.9750 A0.5000 0.5000 0.0 0 0 60.9750 60.4750"/>
<path d="M27.9250 41.4250 L27.9250 28.4250 "/>
<path d="M28.4250 27.9250 L41.4250 27.9250 "/>
<path d="M41.4250 41.9250 L28.4250 41.9250 "/>
<path d="M41.9250 28.4250 L41.9250 41.4250 "/>
<path d="M28.4250 27.9250 A0.5000 0.5000 0.0 0 0 27.9250 28.4250"/>
<path d="M27.9250 41.4250 A0.5000 0.5000 0.0 0 0 28.4250 41.9250"/>
<path d="M41.9250 28.4250 A0.5000 0.5000 0.0 0 0 41.4250 27.9250"/>
<path d="M41.4250 41.9250 A0.5000 0.5000 0.0 0 0 41.9250 41.4250"/>
<path d="M85.0750 60.4750 L85.0750 47.4750 "/>
<path d="M85.5750 46.9750 L98.5750 46.9750 "/>
<path d="M98.5750 60.9750 L85.5750 60.9750 "/>
<path d="M99.0750 47.4750 L99.0750 60.4750 "/>
<path d="M85.5750 46.9750 A0.5000 0.5000 0.0 0 0 85.0750 47.4750"/>
<path d="M85.0750 60.4750 A0.5000 0.5000 0.0 0 0 85.5750 60.9750"/>
<path d="M99.0750 47.4750 A0.5000 0.5000 0.0 0 0 98.5750 46.9750"/>
<path d="M98.5750 60.9750 A0.5000 0.5000 0.0 0 0 99.0750 60.4750"/>
<path d="M85.0750 41.4250 L85.0750 28.4250 "/>
<path d="M85.5750 27.9250 L98.5750 27.9250 "/>
<path d="M98.5750 41.9250 L85.5750 41.9250 "/>
<path d="M99.0750 28.4250 L99.0750 41.4250 "/>
<path d="M85.5750 27.9250 A0.5000 0.5000 0.0 0 0 85.0750 28.4250"/>
<path d="M85.0750 41.4250 A0.5000 0.5000 0.0 0 0 85.5750 41.9250"/>
<path d="M99.0750 28.4250 A0.5000 0.5000 0.0 0 0 98.5750 27.9250"/>
<path d="M98.5750 41.9250 A0.5000 0.5000 0.0 0 0 99.0750 41.4250"/>
<path d="M66.0250 60.4750 L66.0250 47.4750 "/>
<path d="M66.5250 46.9750 L79.5250 46.9750 "/>
<path d="M79.5250 60.9750 L66.5250 60.9750 "/>
<path d="M80.0250 47.4750 L80.0250 60.4750 "/>
<path d="M66.5250 46.9750 A0.5000 0.5000 0.0 0 0 66.0250 47.4750"/>
<path d="M66.0250 60.4750 A0.5000 0.5000 0.0 0 0 66.5250 60.9750"/>
<path d="M80.0250 47.4750 A0.5000 0.5000 0.0 0 0 79.5250 46.9750"/>
<path d="M79.5250 60.9750 A0.5000 0.5000 0.0 0 0 80.0250 60.4750"/>
<path d="M46.9750 79.5250 L46.9750 66.5250 "/>
<path d="M47.4750 66.0250 L60.4750 66.0250 "/>
<path d="M60.4750 80.0250 L47.4750 80.0250 "/>
<path d="M60.9750 66.5250 L60.9750 79.5250 "/>
<path d="M47.4750 66.0250 A0.5000 0.5000 0.0 0 0 46.9750 66.5250"/>
<path d="M46.9750 79.5250 A0.5000 0.5000 0.0 0 0 47.4750 80.0250"/>
<path d="M60.9750 66.5250 A0.5000 0.5000 0.0 0 0 60.4750 66.0250"/>
<path d="M60.4750 80.0250 A0.5000 0.5000 0.0 0 0 60.9750 79.5250"/>
<path d="M66.0650 98.6600 L66.0650 85.4900 "/>
<path d="M66.9120 85.0900 L66.4650 85.0900 "/>
<path d="M67.1120 84.8900 L67.1120 83.4750 "/>
<path d="M67.5120 83.0750 L73.7120 83.0750 "/>
<path d="M74.1120 84.8900 L74.1120 83.4750 "/>
<path d="M74.3120 85.0900 L90.7880 85.0900 "/>
<path d="M90.9880 84.8900 L90.9880 83.4750 "/>
<path d="M97.5880 83.0750 L91.3880 83.0750 "/>
<path d="M97.9880 84.8900 L97.9880 83.4750 "/>
<path d="M98.1880 85.0900 L98.6350 85.0900 "/>
<path d="M98.6350 99.0600 L66.4650 99.0600 "/>
<path d="M99.0350 85.4900 L99.0350 98.6600 "/>
<path d="M66.4650 85.0900 A0.4000 0.4000 0.0 0 0 66.0650 85.4900"/>
<path d="M66.0650 98.6600 A0.4000 0.4000 0.0 0 0 66.4650 99.0600"/>
<path d="M67.5120 83.0750 A0.4000 0.4000 0.0 0 0 67.1120 83.4750"/>
<path d="M66.9120 85.0900 A0.2000 0.2000 0.0 0 0 67.1120 84.8900"/>
<path d="M74.1120 83.4750 A0.4000 0.4000 0.0 0 0 73.7120 83.0750"/>
<path d="M74.1120 84.8900 A0.2000 0.2000 0.0 0 0 74.3120 85.0900"/>
<path d="M91.3880 83.0750 A0.4000 0.4000 0.0 0 0 90.9880 83.4750"/>
<path d="M90.7880 85.0900 A0.2000 0.2000 0.0 0 0 90.9880 84.8900"/>
<path d="M97.9880 83.4750 A0.4000 0.4000 0.0 0 0 97.5880 83.0750"/>
<path d="M97.9880 84.8900 A0.2000 0.2000 0.0 0 0 98.1880 85.0900"/>
<path d="M99.0350 85.4900 A0.4000 0.4000 0.0 0 0 98.6350 85.0900"/>
<path d="M98.6350 99.0600 A0.4000 0.4000 0.0 0 0 99.0350 98.6600"/>
<path d="M46.9750 41.4250 L46.9750 28.4250 "/>
<path d="M47.4750 27.9250 L60.4750 27.9250 "/>
<path d="M60.4750 41.9250 L47.4750 41.9250 "/>
<path d="M60.9750 28.4250 L60.9750 41.4250 "/>
<path d="M47.4750 27.9250 A0.5000 0.5000 0.0 0 0 46.9750 28.4250"/>
<path d="M46.9750 41.4250 A0.5000 0.5000 0.0 0 0 47.4750 41.9250"/>
<path d="M60.9750 28.4250 A0.5000 0.5000 0.0 0 0 60.4750 27.9250"/>
<path d="M60.4750 41.9250 A0.5000 0.5000 0.0 0 0 60.9750 41.4250"/>
<path d="M85.0750 79.5250 L85.0750 66.5250 "/>
<path d="M85.5750 66.0250 L98.5750 66.0250 "/>
<path d="M98.5750 80.0250 L85.5750 80.0250 "/>
<path d="M99.0750 66.5250 L99.0750 79.5250 "/>
<path d="M85.5750 66.0250 A0.5000 0.5000 0.0 0 0 85.0750 66.5250"/>
<path d="M85.0750 79.5250 A0.5000 0.5000 0.0 0 0 85.5750 80.0250"/>
<path d="M99.0750 66.5250 A0.5000 0.5000 0.0 0 0 98.5750 66.0250"/>
<path d="M98.5750 80.0250 A0.5000 0.5000 0.0 0 0 99.0750 79.5250"/>
<path d="M27.9250 60.4750 L27.9250 47.4750 "/>
<path d="M28.4250 46.9750 L41.4250 46.9750 "/>
<path d="M41.4250 60.9750 L28.4250 60.9750 "/>
<path d="M41.9250 47.4750 L41.9250 60.4750 "/>
<path d="M28.4250 46.9750 A0.5000 0.5000 0.0 0 0 27.9250 47.4750"/>
<path d="M27.9250 60.4750 A0.5000 0.5000 0.0 0 0 28.4250 60.9750"/>
<path d="M41.9250 47.4750 A0.5000 0.5000 0.0 0 0 41.4250 46.9750"/>
<path d="M41.4250 60.9750 A0.5000 0.5000 0.0 0 0 41.9250 60.4750"/>
<path d="M27.9250 79.5250 L27.9250 66.5250 "/>
<path d="M28.4250 66.0250 L41.4250 66.0250 "/>
<path d="M41.4250 80.0250 L28.4250 80.0250 "/>
<path d="M41.9250 66.5250 L41.9250 79.5250 "/>
<path d="M28.4250 66.0250 A0.5000 0.5000 0.0 0 0 27.9250 66.5250"/>
<path d="M27.9250 79.5250 A0.5000 0.5000 0.0 0 0 28.4250 80.0250"/>
<path d="M41.9250 66.5250 A0.5000 0.5000 0.0 0 0 41.4250 66.0250"/>
<path d="M41.4250 80.0250 A0.5000 0.5000 0.0 0 0 41.9250 79.5250"/>
<path d="M66.0250 79.5250 L66.0250 66.5250 "/>
<path d="M66.5250 66.0250 L79.5250 66.0250 "/>
<path d="M79.5250 80.0250 L66.5250 80.0250 "/>
<path d="M80.0250 66.5250 L80.0250 79.5250 "/>
<path d="M66.5250 66.0250 A0.5000 0.5000 0.0 0 0 66.0250 66.5250"/>
<path d="M66.0250 79.5250 A0.5000 0.5000 0.0 0 0 66.5250 80.0250"/>
<path d="M80.0250 66.5250 A0.5000 0.5000 0.0 0 0 79.5250 66.0250"/>
<path d="M79.5250 80.0250 A0.5000 0.5000 0.0 0 0 80.0250 79.5250"/>
<path d="M27.9650 98.6600 L27.9650 85.4900 "/>
<path d="M28.8120 85.0900 L28.3650 85.0900 "/>
<path d="M29.0120 84.8900 L29.0120 83.4750 "/>
<path d="M29.4120 83.0750 L35.6120 83.0750 "/>
<path d="M36.0120 84.8900 L36.0120 83.4750 "/>
<path d="M36.2120 85.0900 L52.6880 85.0900 "/>
<path d="M52.8880 84.8900 L52.8880 83.4750 "/>
<path d="M59.4880 83.0750 L53.2880 83.0750 "/>
<path d="M59.8880 84.8900 L59.8880 83.4750 "/>
<path d="M60.0880 85.0900 L60.5350 85.0900 "/>
<path d="M60.5350 99.0600 L28.3650 99.0600 "/>
<path d="M60.9350 85.4900 L60.9350 98.6600 "/>
<path d="M28.3650 85.0900 A0.4000 0.4000 0.0 0 0 27.9650 85.4900"/>
<path d="M27.9650 98.6600 A0.4000 0.4000 0.0 0 0 28.3650 99.0600"/>
<path d="M29.4120 83.0750 A0.4000 0.4000 0.0 0 0 29.0120 83.4750"/>
<path d="M28.8120 85.0900 A0.2000 0.2000 0.0 0 0 29.0120 84.8900"/>
<path d="M36.0120 83.4750 A0.4000 0.4000 0.0 0 0 35.6120 83.0750"/>
<path d="M36.0120 84.8900 A0.2000 0.2000 0.0 0 0 36.2120 85.0900"/>
<path d="M53.2880 83.0750 A0.4000 0.4000 0.0 0 0 52.8880 83.4750"/>
<path d="M52.6880 85.0900 A0.2000 0.2000 0.0 0 0 52.8880 84.8900"/>
<path d="M59.8880 83.4750 A0.4000 0.4000 0.0 0 0 59.4880 83.0750"/>
<path d="M59.8880 84.8900 A0.2000 0.2000 0.0 0 0 60.0880 85.0900"/>
<path d="M60.9350 85.4900 A0.4000 0.4000 0.0 0 0 60.5350 85.0900"/>
<path d="M60.5350 99.0600 A0.4000 0.4000 0.0 0 0 60.9350 98.6600"/>
<path d="M66.0250 41.4250 L66.0250 28.4250 "/>
<path d="M66.5250 27.9250 L79.5250 27.9250 "/>
<path d="M79.5250 41.9250 L66.5250 41.9250 "/>
<path d="M80.0250 28.4250 L80.0250 41.4250 "/>
<path d="M66.5250 27.9250 A0.5000 0.5000 0.0 0 0 66.0250 28.4250"/>
<path d="M66.0250 41.4250 A0.5000 0.5000 0.0 0 0 66.5250 41.9250"/>
<path d="M80.0250 28.4250 A0.5000 0.5000 0.0 0 0 79.5250 27.9250"/>
<path d="M79.5250 41.9250 A0.5000 0.5000 0.0 0 0 80.0250 41.4250"/>
</g> 
<path d="M -2.0 0.0 A 2.0 2.0 0 1 1 2.0 0.0 L 2.0 -0.0 A 2.0 2.0 0 1 1 -2.0 -0.0 Z" transform="translate(39.6875 44.45) rotate(-0.0)"/><path d="M -2.0 0.0 A 2.0 2.0 0 1 1 2.0 0.0 L 2.0 -0.0 A 2.0 2.0 0 1 1 -2.0 -0.0 Z" transform="translate(39.6875 82.55) rotate(-0.0)"/><path d="M -2.0 0.0 A 2.0 2.0 0 1 1 2.0 0.0 L 2.0 -0.0 A 2.0 2.0 0 1 1 -2.0 -0.0 Z" transform="translate(87.63 82.55) rotate(-0.0)"/><path d="M -2.0 0.0 A 2.0 2.0 0 1 1 2.0 0.0 L 2.0 -0.0 A 2.0 2.0 0 1 1 -2.0 -0.0 Z" transform="translate(87.3125 44.45) rotate(-0.0)"/><path d="M -2.0 0.0 A 2.0 2.0 0 1 1 2.0 0.0 L 2.0 -0.0 A 2.0 2.0 0 1 1 -2.0 -0.0 Z" transform="translate(63.5 82.55) rotate(-0.0)"/></g></g></g></svg>