  0
SECTION
  2
HEADER
  9
$ANGBASE
  50
0.0
  9
$ANGDIR
  70
1
  9
$MEASUREMENT
  70
1
  0
ENDSEC
  0
SECTION
  2
TABLES
  0
TABLE
  2
LTYPE
  70
4
  0
LTYPE
  5
40F
  2
CONTINUOUS
  70
0
  3
Solid line
  72
65
  73
0
  40
0.0
  0
LTYPE
  5
410
  2
DASHDOT
 70
0
  3
Dash Dot ____ _ ____ _
 72
65
 73
4
 40
2.0
 49
1.25
 49
-0.25
 49
0.25
 49
-0.25
  0
LTYPE
  5
411
  2
DASHED
 70
0
  3
Dashed __ __ __ __ __
 72
65
 73
2
 40
0.75
 49
0.5
 49
-0.25
  0
LTYPE
  5
43B
  2
DOTTED
 70
0
  3
Dotted .  .  .  .
 72
65
 73
2
 40
0.2
 49
0.0
 49
-0.2
  0
ENDTAB
  0
TABLE
  2
STYLE
  70
4
  0
STYLE
  2
KICAD
  70
0
  40
0
  41
1
  42
1
  50
0
  71
0
  3
isocp.shx
  0
STYLE
  2
KICADB
  70
0
  40
0
  41
1
  42
1
  50
0
  71
0
  3
isocp.shx
  0
STYLE
  2
KICADI
  70
0
  40
0
  41
1
  42
1
  50
15
  71
0
  3
isocp.shx
  0
STYLE
  2
KICADBI
  70
0
  40
0
  41
1
  42
1
  50
15
  71
0
  3
isocp.shx
  0
ENDTAB
  0
TABLE
  2
LAYER
  70
1
  0
LAYER
  2
BLACK
  70
0
  62
7
  6
CONTINUOUS
  0
ENDTAB
  0
ENDSEC
  0
SECTION
  2
ENTITIES
0
ARC
8
BLACK
10
100.5999999999999943
20
-100.5999999999999943
40
1.
50
-90.00000000
51
-0.00000000
0
LINE
8
BLACK
6
CONTINUOUS
10
25.3999999999999986
20
-100.5999999999999943
11
25.3999999999999986
21
-26.3999999999999986
0
LINE
8
BLACK
6
CONTINUOUS
10
101.5999999999999943
20
-100.5999999999999943
11
101.5999999999999943
21
-26.3999999999999986
0
LINE
8
BLACK
6
CONTINUOUS
10
26.3999999999999986
20
-25.3999999999999986
11
100.5999999999999943
21
-25.3999999999999986
0
ARC
8
BLACK
10
26.3999999999999986
20
-100.5999999999999943
40
1.
50
-180.00000000
51
-90.00000000
0
ARC
8
BLACK
10
26.3999999999999986
20
-26.3999999999999986
40
1.
50
90.00000000
51
180.00000000
0
LINE
8
BLACK
6
CONTINUOUS
10
100.5999999999999943
20
-101.5999999999999943
11
26.3999999999999986
21
-101.5999999999999943
0
ARC
8
BLACK
10
100.5999999999999943
20
-26.3999999999999986
40
1.
50
0.00000000
51
90.00000000
0
LINE
8
BLACK
6
CONTINUOUS
10
46.9750000000000014
20
-60.4749999999999943
11
46.9750000000000014
21
-47.4749999999999943
0
LINE
8
BLACK
6
CONTINUOUS
10
47.4749999999999943
20
-46.9750000000000014
11
60.4749999999999943
21
-46.9750000000000014
0
LINE
8
BLACK
6
CONTINUOUS
10
60.4749999999999943
20
-60.9749999999999943
11
47.4749999999999943
21
-60.9749999999999943
0
LINE
8
BLACK
6
CONTINUOUS
10
60.9749999999999943
20
-47.4749999999999943
11
60.9749999999999943
21
-60.4749999999999943
0
ARC
8
BLACK
10
47.4749999999999943
20
-47.4749999999999943
40
0.5
50
90.00000000
51
180.00000000
0
ARC
8
BLACK
10
47.4749999999999943
20
-60.4749999999999943
40
0.5
50
-180.00000000
51
-90.00000000
0
ARC
8
BLACK
10
60.4749989999999968
20
-47.4750009999999989
40
0.500001000001
50
0.00011459
51
89.99988541
0
ARC
8
BLACK
10
60.4749989999999968
20
-60.4749989999999968
40
0.500001000001
50
-89.99988541
51
-0.00011459
0
LINE
8
BLACK
6
CONTINUOUS
10
27.9249999999999972
20
-41.4249999999999972
11
27.9249999999999972
21
-28.4249999999999972
0
LINE
8
BLACK
6
CONTINUOUS
10
28.4249999999999972
20
-27.9249999999999972
11
41.4249999999999972
21
-27.9249999999999972
0
LINE
8
BLACK
6
CONTINUOUS
10
41.4249999999999972
20
-41.9249999999999972
11
28.4249999999999972
21
-41.9249999999999972
0
LINE
8
BLACK
6
CONTINUOUS
10
41.9249999999999972
20
-28.4249999999999972
11
41.9249999999999972
21
-41.4249999999999972
0
ARC
8
BLACK
10
28.4249999999999972
20
-28.4249999999999972
40
0.5
50
90.00000000
51
180.00000000
0
ARC
8
BLACK
10
28.4249999999999972
20
-41.4249999999999972
40
0.5
50
-180.00000000
51
-90.00000000
0
ARC
8
BLACK
10
41.4249989999999997
20
-28.4250009999999982
40
0.500001000001
50
0.00011459
51
89.99988541
0
ARC
8
BLACK
10
41.4249989999999997
20
-41.4249989999999997
40
0.500001000001
50
-89.99988541
51
-0.00011459
0
LINE
8
BLACK
6
CONTINUOUS
10
85.0750000000000028
20
-60.4749999999999943
11
85.0750000000000028
21
-47.4749999999999943
0
LINE
8
BLACK
6
CONTINUOUS
10
85.5750000000000028
20
-46.9750000000000014
11
98.5749999999999886
21
-46.9750000000000014
0
LINE
8
BLACK
6
CONTINUOUS
10
98.5749999999999886
20
-60.9749999999999943
11
85.5750000000000028
21
-60.9749999999999943
0
LINE
8
BLACK
6
CONTINUOUS
10
99.0749999999999886
20
-47.4749999999999943
11
99.0749999999999886
21
-60.4749999999999943
0
ARC
8
BLACK
10
85.5750000000000028
20
-47.4749999999999943
40
0.5
50
90.00000000
51
180.00000000
0
ARC
8
BLACK
10
85.5750000000000028
20
-60.4749999999999943
40
0.5
50
-180.00000000
51
-90.00000000
0
ARC
8
BLACK
10
98.5749989999999912
20
-47.4750009999999989
40
0.500001000001
50
0.00011459
51
89.99988541
0
ARC
8
BLACK
10
98.5749989999999912
20
-60.4749989999999968
40
0.500001000001
50
-89.99988541
51
-0.00011459
0
LINE
8
BLACK
6
CONTINUOUS
10
85.0750000000000028
20
-41.4249999999999972
11
85.0750000000000028
21
-28.4249999999999972
0
LINE
8
BLACK
6
CONTINUOUS
10
85.5750000000000028
20
-27.9249999999999972
11
98.5749999999999886
21
-27.9249999999999972
0
LINE
8
BLACK
6
CONTINUOUS
10
98.5749999999999886
20
-41.9249999999999972
11
85.5750000000000028
21
-41.9249999999999972
0
LINE
8
BLACK
6
CONTINUOUS
10
99.0749999999999886
20
-28.4249999999999972
11
99.0749999999999886
21
-41.4249999999999972
0
ARC
8
BLACK
10
85.5750000000000028
20
-28.4249999999999972
40
0.5
50
90.00000000
51
180.00000000
0
ARC
8
BLACK
10
85.5750000000000028
20
-41.4249999999999972
40
0.5
50
-180.00000000
51
-90.00000000
0
ARC
8
BLACK
10
98.5749989999999912
20
-28.4250009999999982
40
0.500001000001
50
0.00011459
51
89.99988541
0
ARC
8
BLACK
10
98.5749989999999912
20
-41.4249989999999997
40
0.500001000001
50
-89.99988541
51
-0.00011459
0
LINE
8
BLACK
6
CONTINUOUS
10
66.0249999999999915
20
-60.4749999999999943
11
66.0249999999999915
21
-47.4749999999999943
0
LINE
8
BLACK
6
CONTINUOUS
10
66.5249999999999915
20
-46.9750000000000014
11
79.5249999999999915
21
-46.9750000000000014
0
LINE
8
BLACK
6
CONTINUOUS
10
79.5249999999999915
20
-60.9749999999999943
11
66.5249999999999915
21
-60.9749999999999943
0
LINE
8
BLACK
6
CONTINUOUS
10
80.0249999999999915
20
-47.4749999999999943
11
80.0249999999999915
21
-60.4749999999999943
0
ARC
8
BLACK
10
66.5249999999999915
20
-47.4749999999999943
40
0.5
50
90.00000000
51
180.00000000
0
ARC
8
BLACK
10
66.5249999999999915
20
-60.4749999999999943
40
0.5
50
-180.00000000
51
-90.00000000
0
ARC
8
BLACK
10
79.524998999999994
20
-47.4750009999999989
40
0.500001000001
50
0.00011459
51
89.99988541
0
ARC
8
BLACK
10
79.524998999999994
20
-60.4749989999999968
40
0.500001000001
50
-89.99988541
51
-0.00011459
0
LINE
8
BLACK
6
CONTINUOUS
10
46.9750000000000014
20
-79.5249999999999915
11
46.9750000000000014
21
-66.5249999999999915
0
LINE
8
BLACK
6
CONTINUOUS
10
47.4749999999999943
20
-66.0249999999999915
11
60.4749999999999943
21
-66.0249999999999915
0
LINE
8
BLACK
6
CONTINUOUS
10
60.4749999999999943
20
-80.0249999999999915
11
47.4749999999999943
21
-80.0249999999999915
0
LINE
8
BLACK
6
CONTINUOUS
10
60.9749999999999943
20
-66.5249999999999915
11
60.9749999999999943
21
-79.5249999999999915
0
ARC
8
BLACK
10
47.4749999999999943
20
-66.5249999999999915
40
0.5
50
90.00000000
51
180.00000000
0
ARC
8
BLACK
10
47.4749999999999943
20
-79.5249999999999915
40
0.5
50
-180.00000000
51
-90.00000000
0
ARC
8
BLACK
10
60.4749989999999968
20
-66.5250010000000032
40
0.500001000001
50
0.00011459
51
89.99988541
0
ARC
8
BLACK
10
60.4749989999999968
20
-79.524998999999994
40
0.500001000001
50
-89.99988541
51
-0.00011459
0
LINE
8
BLACK
6
CONTINUOUS
10
66.0649999999999977
20
-98.6599999999999966
11
66.0649999999999977
21
-85.4899999999999949
0
LINE
8
BLACK
6
CONTINUOUS
10
66.9119999999999919
20
-85.0899999999999892
11
66.4650000000000034
21
-85.0899999999999892
0
LINE
8
BLACK
6
CONTINUOUS
10
67.1119999999999948
20
-84.8900000000000006
11
67.1119999999999948
21
-83.4749999999999943
0
LINE
8
BLACK
6
CONTINUOUS
10
67.5120000000000005
20
-83.0750000000000028
11
73.7120000000000033
21
-83.0750000000000028
0
LINE
8
BLACK
6
CONTINUOUS
10
74.1119999999999948
20
-84.8900000000000006
11
74.1119999999999948
21
-83.4749999999999943
0
LINE
8
BLACK
6
CONTINUOUS
10
74.3119999999999976
20
-85.0899999999999892
11
90.7879999999999967
21
-85.0899999999999892
0
LINE
8
BLACK
6
CONTINUOUS
10
90.9879999999999995
20
-84.8900000000000006
11
90.9879999999999995
21
-83.4749999999999943
0
LINE
8
BLACK
6
CONTINUOUS
10
97.5879999999999939
20
-83.0750000000000028
11
91.387999999999991
21
-83.0750000000000028
0
LINE
8
BLACK
6
CONTINUOUS
10
97.9879999999999995
20
-84.8900000000000006
11
97.9879999999999995
21
-83.4749999999999943
0
LINE
8
BLACK
6
CONTINUOUS
10
98.1880000000000024
20
-85.0899999999999892
11
98.6349999999999909
21
-85.0899999999999892
0
LINE
8
BLACK
6
CONTINUOUS
10
98.6349999999999909
20
-99.0600000000000023
11
66.4650000000000034
21
-99.0600000000000023
0
LINE
8
BLACK
6
CONTINUOUS
10
99.0349999999999966
20
-85.4899999999999949
11
99.0349999999999966
21
-98.6599999999999966
0
ARC
8
BLACK
10
66.4650000000000034
20
-85.4899999999999949
40
0.4
50
90.00000000
51
180.00000000
0
ARC
8
BLACK
10
66.4650000000000034
20
-98.6599999999999966
40
0.4
50
-180.00000000
51
-90.00000000
0
ARC
8
BLACK
10
67.5120000000000005
20
-83.4749999999999943
40
0.4
50
90.00000000
51
180.00000000
0
ARC
8
BLACK
10
66.9119999999999919
20
-84.8900000000000006
40
0.2
50
-90.00000000
51
-0.00000000
0
ARC
8
BLACK
10
73.7120000000000033
20
-83.4749999999999943
40
0.4
50
0.00000000
51
90.00000000
0
ARC
8
BLACK
10
74.3119999999999976
20
-84.8900000000000006
40
0.2
50
-180.00000000
51
-90.00000000
0
ARC
8
BLACK
10
91.3879989999999935
20
-83.4749989999999968
40
0.39999900000125
50
-270.00014324
51
-179.99985676
0
ARC
8
BLACK
10
90.7879989999999992
20
-84.8899990000000031
40
0.2000010000025
50
-89.99971352
51
-0.00028648
0
ARC
8
BLACK
10
97.5880009999999913
20
-83.4749989999999968
40
0.39999900000125
50
-0.00014324
51
90.00014324
0
ARC
8
BLACK
10
98.1880049999999898
20
-84.889994999999999
40
0.2000050000624984
50
-179.99856764
51
-90.00143236
0
ARC
8
BLACK
10
98.6350010000000026
20
-85.4899989999999974
40
0.39999900000125
50
-0.00014324
51
90.00014324
0
ARC
8
BLACK
10
98.6350010000000026
20
-98.6600009999999941
40
0.39999900000125
50
-90.00014324
51
0.00014324
0
LINE
8
BLACK
6
CONTINUOUS
10
46.9750000000000014
20
-41.4249999999999972
11
46.9750000000000014
21
-28.4249999999999972
0
LINE
8
BLACK
6
CONTINUOUS
10
47.4749999999999943
20
-27.9249999999999972
11
60.4749999999999943
21
-27.9249999999999972
0
LINE
8
BLACK
6
CONTINUOUS
10
60.4749999999999943
20
-41.9249999999999972
11
47.4749999999999943
21
-41.9249999999999972
0
LINE
8
BLACK
6
CONTINUOUS
10
60.9749999999999943
20
-28.4249999999999972
11
60.9749999999999943
21
-41.4249999999999972
0
ARC
8
BLACK
10
47.4749999999999943
20
-28.4249999999999972
40
0.5
50
90.00000000
51
180.00000000
0
ARC
8
BLACK
10
47.4749999999999943
20
-41.4249999999999972
40
0.5
50
-180.00000000
51
-90.00000000
0
ARC
8
BLACK
10
60.4749989999999968
20
-28.4250009999999982
40
0.500001000001
50
0.00011459
51
89.99988541
0
ARC
8
BLACK
10
60.4749989999999968
20
-41.4249989999999997
40
0.500001000001
50
-89.99988541
51
-0.00011459
0
LINE
8
BLACK
6
CONTINUOUS
10
85.0750000000000028
20
-79.5249999999999915
11
85.0750000000000028
21
-66.5249999999999915
0
LINE
8
BLACK
6
CONTINUOUS
10
85.5750000000000028
20
-66.0249999999999915
11
98.5749999999999886
21
-66.0249999999999915
0
LINE
8
BLACK
6
CONTINUOUS
10
98.5749999999999886
20
-80.0249999999999915
11
85.5750000000000028
21
-80.0249999999999915
0
LINE
8
BLACK
6
CONTINUOUS
10
99.0749999999999886
20
-66.5249999999999915
11
99.0749999999999886
21
-79.5249999999999915
0
ARC
8
BLACK
10
85.5750000000000028
20
-66.5249999999999915
40
0.5
50
90.00000000
51
180.00000000
0
ARC
8
BLACK
10
85.5750000000000028
20
-79.5249999999999915
40
0.5
50
-180.00000000
51
-90.00000000
0
ARC
8
BLACK
10
98.5749989999999912
20
-66.5250010000000032
40
0.500001000001
50
0.00011459
51
89.99988541
0
ARC
8
BLACK
10
98.5749989999999912
20
-79.524998999999994
40
0.500001000001
50
-89.99988541
51
-0.00011459
0
LINE
8
BLACK
6
CONTINUOUS
10
27.9249999999999972
20
-60.4749999999999943
11
27.9249999999999972
21
-47.4749999999999943
0
LINE
8
BLACK
6
CONTINUOUS
10
28.4249999999999972
20
-46.9750000000000014
11
41.4249999999999972
21
-46.9750000000000014
0
LINE
8
BLACK
6
CONTINUOUS
10
41.4249999999999972
20
-60.9749999999999943
11
28.4249999999999972
21
-60.9749999999999943
0
LINE
8
BLACK
6
CONTINUOUS
10
41.9249999999999972
20
-47.4749999999999943
11
41.9249999999999972
21
-60.4749999999999943
0
ARC
8
BLACK
10
28.4249999999999972
20
-47.4749999999999943
40
0.5
50
90.00000000
51
180.00000000
0
ARC
8
BLACK
10
28.4249999999999972
20
-60.4749999999999943
40
0.5
50
-180.00000000
51
-90.00000000
0
ARC
8
BLACK
10
41.4249989999999997
20
-47.4750009999999989
40
0.500001000001
50
0.00011459
51
89.99988541
0
ARC
8
BLACK
10
41.4249989999999997
20
-60.4749989999999968
40
0.500001000001
50
-89.99988541
51
-0.00011459
0
LINE
8
BLACK
6
CONTINUOUS
10
27.9249999999999972
20
-79.5249999999999915
11
27.9249999999999972
21
-66.5249999999999915
0
LINE
8
BLACK
6
CONTINUOUS
10
28.4249999999999972
20
-66.0249999999999915
11
41.4249999999999972
21
-66.0249999999999915
0
LINE
8
BLACK
6
CONTINUOUS
10
41.4249999999999972
20
-80.0249999999999915
11
28.4249999999999972
21
-80.0249999999999915
0
LINE
8
BLACK
6
CONTINUOUS
10
41.9249999999999972
20
-66.5249999999999915
11
41.9249999999999972
21
-79.5249999999999915
0
ARC
8
BLACK
10
28.4249999999999972
20
-66.5249999999999915
40
0.5
50
90.00000000
51
180.00000000
0
ARC
8
BLACK
10
28.4249999999999972
20
-79.5249999999999915
40
0.5
50
-180.00000000
51
-90.00000000
0
ARC
8
BLACK
10
41.4249989999999997
20
-66.5250010000000032
40
0.500001000001
50
0.00011459
51
89.99988541
0
ARC
8
BLACK
10
41.4249989999999997
20
-79.524998999999994
40
0.500001000001
50
-89.99988541
51
-0.00011459
0
LINE
8
BLACK
6
CONTINUOUS
10
66.0249999999999915
20
-79.5249999999999915
11
66.0249999999999915
21
-66.5249999999999915
0
LINE
8
BLACK
6
CONTINUOUS
10
66.5249999999999915
20
-66.0249999999999915
11
79.5249999999999915
21
-66.0249999999999915
0
LINE
8
BLACK
6
CONTINUOUS
10
79.5249999999999915
20
-80.0249999999999915
11
66.5249999999999915
21
-80.0249999999999915
0
LINE
8
BLACK
6
CONTINUOUS
10
80.0249999999999915
20
-66.5249999999999915
11
80.0249999999999915
21
-79.5249999999999915
0
ARC
8
BLACK
10
66.5249999999999915
20
-66.5249999999999915
40
0.5
50
90.00000000
51
180.00000000
0
ARC
8
BLACK
10
66.5249999999999915
20
-79.5249999999999915
40
0.5
50
-180.00000000
51
-90.00000000
0
ARC
8
BLACK
10
79.524998999999994
20
-66.5250010000000032
40
0.500001000001
50
0.00011459
51
89.99988541
0
ARC
8
BLACK
10
79.524998999999994
20
-79.524998999999994
40
0.500001000001
50
-89.99988541
51
-0.00011459
0
LINE
8
BLACK
6
CONTINUOUS
10
27.9649999999999999
20
-98.6599999999999966
11
27.9649999999999999
21
-85.4899999999999949
0
LINE
8
BLACK
6
CONTINUOUS
10
28.8119999999999976
20
-85.0899999999999892
11
28.3649999999999984
21
-85.0899999999999892
0
LINE
8
BLACK
6
CONTINUOUS
10
29.0120000000000005
20
-84.8900000000000006
11
29.0120000000000005
21
-83.4749999999999943
0
LINE
8
BLACK
6
CONTINUOUS
10
29.411999999999999
20
-83.0750000000000028
11
35.6120000000000019
21
-83.0750000000000028
0
LINE
8
BLACK
6
CONTINUOUS
10
36.0120000000000005
20
-84.8900000000000006
11
36.0120000000000005
21
-83.4749999999999943
0
LINE
8
BLACK
6
CONTINUOUS
10
36.2119999999999962
20
-85.0899999999999892
11
52.6879999999999953
21
-85.0899999999999892
0
LINE
8
BLACK
6
CONTINUOUS
10
52.8879999999999981
20
-84.8900000000000006
11
52.8879999999999981
21
-83.4749999999999943
0
LINE
8
BLACK
6
CONTINUOUS
10
59.4879999999999995
20
-83.0750000000000028
11
53.2879999999999967
21
-83.0750000000000028
0
LINE
8
BLACK
6
CONTINUOUS
10
59.8879999999999981
20
-84.8900000000000006
11
59.8879999999999981
21
-83.4749999999999943
0
LINE
8
BLACK
6
CONTINUOUS
10
60.0879999999999939
20
-85.0899999999999892
11
60.5349999999999966
21
-85.0899999999999892
0
LINE
8
BLACK
6
CONTINUOUS
10
60.5349999999999966
20
-99.0600000000000023
11
28.3649999999999984
21
-99.0600000000000023
0
LINE
8
BLACK
6
CONTINUOUS
10
60.9349999999999952
20
-85.4899999999999949
11
60.9349999999999952
21
-98.6599999999999966
0
ARC
8
BLACK
10
28.3649999999999984
20
-85.4899999999999949
40
0.4
50
90.00000000
51
180.00000000
0
ARC
8
BLACK
10
28.3649999999999984
20
-98.6599999999999966
40
0.4
50
-180.00000000
51
-90.00000000
0
ARC
8
BLACK
10
29.411999999999999
20
-83.4749999999999943
40
0.4
50
90.00000000
51
180.00000000
0
ARC
8
BLACK
10
28.8119999999999976
20
-84.8900000000000006
40
0.2
50
-90.00000000
51
-0.00000000
0
ARC
8
BLACK
10
35.6120000000000019
20
-83.4749999999999943
40
0.4
50
0.00000000
51
90.00000000
0
ARC
8
BLACK
10
36.2119999999999962
20
-84.8900000000000006
40
0.2
50
-180.00000000
51
-90.00000000
0
ARC
8
BLACK
10
53.2879989999999992
20
-83.4749989999999968
40
0.39999900000125
50
-270.00014324
51
-179.99985676
0
ARC
8
BLACK
10
52.6879989999999978
20
-84.8899990000000031
40
0.2000010000025
50
-89.99971352
51
-0.00028648
0
ARC
8
BLACK
10
59.488000999999997
20
-83.4749989999999968
40
0.39999900000125
50
-0.00014324
51
90.00014324
0
ARC
8
BLACK
10
60.0880049999999954
20
-84.889994999999999
40
0.2000050000624984
50
-179.99856764
51
-90.00143236
0
ARC
8
BLACK
10
60.5350009999999941
20
-85.4899989999999974
40
0.39999900000125
50
-0.00014324
51
90.00014324
0
ARC
8
BLACK
10
60.5350009999999941
20
-98.6600009999999941
40
0.39999900000125
50
-90.00014324
51
0.00014324
0
LINE
8
BLACK
6
CONTINUOUS
10
66.0249999999999915
20
-41.4249999999999972
11
66.0249999999999915
21
-28.4249999999999972
0
LINE
8
BLACK
6
CONTINUOUS
10
66.5249999999999915
20
-27.9249999999999972
11
79.5249999999999915
21
-27.9249999999999972
0
LINE
8
BLACK
6
CONTINUOUS
10
79.5249999999999915
20
-41.9249999999999972
11
66.5249999999999915
21
-41.9249999999999972
0
LINE
8
BLACK
6
CONTINUOUS
10
80.0249999999999915
20
-28.4249999999999972
11
80.0249999999999915
21
-41.4249999999999972
0
ARC
8
BLACK
10
66.5249999999999915
20
-28.4249999999999972
40
0.5
50
90.00000000
51
180.00000000
0
ARC
8
BLACK
10
66.5249999999999915
20
-41.4249999999999972
40
0.5
50
-180.00000000
51
-90.00000000
0
ARC
8
BLACK
10
79.524998999999994
20
-28.4250009999999982
40
0.500001000001
50
0.00011459
51
89.99988541
0
ARC
8
BLACK
10
79.524998999999994
20
-41.4249989999999997
40
0.500001000001
50
-89.99988541
51
-0.00011459
0
CIRCLE
8
BLACK
10
39.6875
20
-44.4499999999999957
40
1.9999989999999999
0
CIRCLE
8
BLACK
10
39.6875
20
-82.5499999999999972
40
1.9999989999999999
0
CIRCLE
8
BLACK
10
87.6299999999999955
20
-82.5499999999999972
40
1.9999989999999999
0
CIRCLE
8
BLACK
10
87.3125
20
-44.4499999999999957
40
1.9999989999999999
0
CIRCLE
8
BLACK
10
63.5
20
-82.5499999999999972
40
1.9999989999999999
  0
ENDSEC
  0
EOF
